<?xml version="1.0" encoding="UTF-8" standalone="no"?>
<!-- Created with Inkscape (http://www.inkscape.org/) -->

<svg
   width="297mm"
   height="210mm"
   viewBox="0 0 297 210"
   version="1.1"
   id="svg1"
   xmlns:xlink="http://www.w3.org/1999/xlink"
   xmlns="http://www.w3.org/2000/svg"
   xmlns:svg="http://www.w3.org/2000/svg">
  <defs
     id="defs1">
    <radialGradient
       id="Degradado_sin_nombre"
       data-name="Degradado sin nombre"
       cx="-585.01001"
       cy="595.38"
       fx="-585.01001"
       fy="595.38"
       r="149.96001"
       gradientTransform="matrix(0.27654614,0,0,-0.27654614,212.02673,263.92155)"
       gradientUnits="userSpaceOnUse">
      <stop
         offset=".59"
         stop-color="#f5e7a6"
         id="stop1" />
      <stop
         offset="1"
         stop-color="#cfa550"
         id="stop2" />
    </radialGradient>
    <linearGradient
       xlink:href="#linearGradient3"
       id="linearGradient4"
       x1="-1845.8215"
       y1="-518.17572"
       x2="-58.313446"
       y2="-526.22247"
       gradientUnits="userSpaceOnUse"
       gradientTransform="matrix(0.09771949,0,0,0.09771949,293.69365,146.35103)" />
    <linearGradient
       id="linearGradient3">
      <stop
         style="stop-color:#c19137;stop-opacity:1;"
         offset="0"
         id="stop3" />
      <stop
         style="stop-color:#e9d58d;stop-opacity:1;"
         offset="0.46360365"
         id="stop5" />
      <stop
         style="stop-color:#ecd792;stop-opacity:1;"
         offset="0.57190853"
         id="stop7" />
      <stop
         style="stop-color:#d7b768;stop-opacity:1;"
         offset="0.67335868"
         id="stop6" />
      <stop
         style="stop-color:#bd8b30;stop-opacity:1;"
         offset="1"
         id="stop4" />
    </linearGradient>
  </defs>
  <g
     id="layer1">
    <g
       id="g1"
       transform="translate(-1.2112327,0.52349642)">
      <path
         id="path5"
         class="st1"
         d="m 49.713698,58.609009 c -13.466723,0.380129 -24.477754,7.413978 -30.755252,14.706783 9.475859,12.57943 18.778751,20.355946 26.566993,22.674829 -10.362173,-9.434816 -6.491505,-18.018495 -4.482393,-19.043573 5.010078,-3.077186 12.955649,5.936459 11.797673,15.341959 0.910747,-1.903576 2.93647,-8.239707 2.13713,-14.734144 -0.799348,-6.494437 0.650807,-18.682988 0.650807,-18.682988 -2.016929,-0.236481 -3.990864,-0.317589 -5.914958,-0.262866 z m 9.414291,0.88143 c -0.868725,0.149511 -0.726051,24.175801 2.899338,41.625561 1.572312,7.56936 3.272628,17.50255 3.898036,25.17352 0.592173,7.26154 0.270685,12.26869 0.270685,12.26869 C 82.558197,131.54097 92.1562,117.35308 92.213856,99.029697 91.26793,82.204356 81.201847,64.76436 59.127989,59.489462 v 0 z M 16.561382,76.304054 C 5.3715289,93.313107 9.4092978,108.28471 12.194301,115.95862 c 1.688595,3.97132 3.789563,7.41007 6.18076,10.36315 10.88888,13.45011 27.793375,16.83805 39.122967,14.68822 1.80879,-10.95631 0.501309,-21.6009 -17.27094,-36.28032 C 26.308903,92.636888 22.794908,85.742779 16.561382,76.303077 v 0 z m 69.252825,10.855658 c 2.660903,12.234479 0.803252,22.083628 -3.925391,27.714218 -2.592497,3.08696 -6.341015,4.66415 -10.000611,5.2319 4.456009,-5.65209 6.94785,-10.94458 7.340685,-15.54814 -2.555364,8.30518 -10.811687,13.66216 -10.811687,13.66216 -5.073594,-16.21557 6.21496,-22.834113 17.397004,-31.060138 z M 33.941773,111.93649 c 9.532538,0.1368 16.702217,4.08565 19.337709,12.96639 -5.75763,-2.63842 -11.205493,-5.33744 -18.563767,-5.33157 6.712343,1.64266 11.831872,3.92833 17.212307,9.31169 -13.51754,7.5674 -23.648118,1.87328 -37.227212,-13.31819 6.951761,-2.42051 13.521438,-3.71041 19.240963,-3.62832 z"
         style="opacity:0.7;isolation:isolate;fill:#545454;stroke-width:0.0977191" />
      <path
         id="path1"
         class="st2"
         d="M 49.018912,57.635723 C 35.552189,58.015852 24.541159,65.049701 18.26366,72.342506 27.739513,84.921935 37.042411,92.698452 44.830653,95.017335 34.46848,85.582519 38.339149,76.998839 40.348261,75.973762 45.358338,72.896576 53.303909,81.91022 52.145933,91.315721 53.056681,89.412145 55.082404,83.076014 54.283056,76.581577 53.483716,70.08714 54.93387,57.898589 54.93387,57.898589 52.916941,57.662108 50.943007,57.581001 49.018912,57.635723 Z m 9.414299,0.882408 c -0.868732,0.14951 -0.726059,24.1758 2.89933,41.625569 1.572312,7.56935 3.272628,17.50253 3.898029,25.17352 0.592187,7.26153 0.270685,12.26867 0.270685,12.26867 C 81.863411,130.56866 91.461414,116.38077 91.51907,98.057389 90.573145,81.232048 80.507061,63.792051 58.433211,58.517153 Z M 15.866603,75.330768 C 4.6767433,92.339821 8.7145123,107.31143 11.499515,114.98533 c 1.688595,3.97132 3.789563,7.41007 6.18076,10.36316 10.88888,13.45011 27.793375,16.83804 39.122975,14.68821 1.808782,-10.95631 0.501294,-21.60089 -17.270948,-36.28031 C 25.614117,91.663602 22.100129,84.769493 15.866603,75.329791 v 0 z m 69.25184,10.855657 c 2.660904,12.23448 0.803252,22.083625 -3.92539,27.714225 -2.592498,3.08696 -6.341016,4.66415 -10.000612,5.2319 4.45601,-5.65209 6.947858,-10.94458 7.340686,-15.54815 -2.555365,8.30518 -10.81168,13.66216 -10.81168,13.66216 -5.073602,-16.21557 6.214959,-22.834109 17.396996,-31.060135 z M 33.246987,110.9632 c 9.532538,0.13681 16.702211,4.08565 19.337709,12.9664 -5.757637,-2.63843 -11.205493,-5.33744 -18.563773,-5.33158 6.712356,1.64266 11.831879,3.92833 17.212313,9.31169 -13.51754,7.5674 -23.648118,1.87328 -37.227218,-13.31819 6.951768,-2.42051 13.521451,-3.7104 19.240969,-3.62832 z"
         style="fill:url(#Degradado_sin_nombre);stroke-width:0.0977191" />
      <path
         style="fill:#666363;fill-opacity:1;stroke-width:0.0723551"
         d="m 162.95416,151.18942 c -1.48404,-0.32338 -2.18703,-0.75862 -2.85156,-1.7655 -0.5321,-0.80623 -0.74334,-3.2301 -0.3954,-4.53713 0.46627,-1.75164 1.66622,-3.62943 3.2235,-5.04449 2.62917,-2.38901 6.0314,-3.70658 8.88734,-3.44173 1.01864,0.0945 1.5452,0.30263 1.7251,0.68199 0.16198,0.34162 0.013,0.72854 -0.33095,0.85929 -0.23168,0.0881 -0.28625,0.0671 -0.48498,-0.18687 -0.3112,-0.39766 -0.91684,-0.51568 -2.07453,-0.40431 -1.31733,0.12673 -2.21944,0.35996 -3.35957,0.86855 -4.16484,1.85788 -6.98829,5.85719 -6.32866,8.96428 0.25898,1.2199 0.7775,1.8567 1.94822,2.39267 0.52946,0.24241 0.60541,0.25114 1.72068,0.19768 3.99414,-0.19144 10.50473,-2.54282 14.18912,-5.12459 0.41093,-0.28795 1.9701,-1.53435 2.33986,-1.87049 0.17177,-0.15617 0.64408,-0.6477 1.04957,-1.09232 1.19138,-1.30631 1.96757,-2.61593 2.34102,-3.94994 0.2613,-0.9334 0.25612,-1.27734 -0.0285,-1.88854 -0.471,-1.01156 -1.33739,-1.65772 -2.51675,-1.877 -0.81843,-0.15217 -1.43967,-0.0603 -2.17065,0.32095 -0.3449,0.17988 -0.81553,0.40162 -1.04585,0.49275 l -0.41874,0.16569 -1.13728,2.33677 c -1.15332,2.36973 -2.05,4.58597 -2.17498,5.37569 -0.0378,0.23877 -0.13716,0.55167 -0.22086,0.69534 -0.15644,0.26855 -0.64889,0.53984 -0.76647,0.42227 -0.0363,-0.0363 -0.0831,-0.49132 -0.104,-1.0111 -0.0618,-1.53801 0.42897,-3.01922 2.12411,-6.41112 0.64601,-1.29261 0.75967,-1.59108 0.73469,-1.92946 -0.0275,-0.372 -0.007,-0.4103 0.29101,-0.54133 0.2629,-0.11566 0.39001,-0.28911 0.70699,-0.96474 0.21256,-0.45305 0.5091,-1.0842 0.65898,-1.40256 0.32713,-0.69485 0.56379,-1.35934 0.60133,-1.6883 0.0249,-0.21793 0.0641,-0.23822 0.40773,-0.21058 0.50939,0.041 0.71394,0.1643 0.79264,0.47785 0.0886,0.35319 -0.17654,1.32371 -0.59221,2.1675 -0.1859,0.37732 -0.32646,0.69755 -0.3124,0.71162 0.0778,0.0778 2.92358,-1.74232 3.83188,-2.45084 1.12026,-0.87387 1.334,-1.06074 2.39363,-2.09279 1.631,-1.58855 2.74531,-3.24528 2.88544,-4.28999 0.0438,-0.32661 0.006,-0.43821 -0.26975,-0.78573 -1.44544,-1.82501 -6.28641,-1.1181 -10.20419,1.49006 -1.79729,1.1965 -4.05235,3.59056 -4.87532,5.17585 -0.45505,0.87655 -0.57227,1.29415 -0.49952,1.77932 0.0743,0.49577 0.60933,1.17104 1.08533,1.36992 0.17567,0.0734 0.31939,0.17408 0.31939,0.22373 0,0.0497 -0.1517,0.20598 -0.33711,0.34739 -0.28795,0.21964 -0.39699,0.24806 -0.74768,0.19496 -0.49756,-0.0753 -1.10066,-0.40421 -1.34179,-0.73169 -0.27658,-0.37561 -0.43104,-1.70182 -0.27821,-2.3886 0.43826,-1.96949 2.94358,-4.91826 5.83802,-6.87141 1.70318,-1.14929 3.9104,-2.08937 5.93529,-2.52791 1.35601,-0.29368 3.435,-0.29063 4.48574,0.006 0.8094,0.22895 1.17679,0.41777 1.61533,0.83025 0.487,0.45803 0.60308,0.79232 0.60348,1.73786 0,0.81962 -0.0218,0.9142 -0.39578,1.68828 -1.03736,2.14735 -2.8715,4.12227 -5.87525,6.32626 l -1.02748,0.75391 0.75524,0.20703 c 1.37762,0.37767 2.01753,0.86868 2.51016,1.92603 0.3732,0.80101 0.42845,2.10466 0.13459,3.17577 -0.25793,0.94016 -1.0094,2.43853 -1.73391,3.45729 -0.64625,0.90869 -2.39585,2.64472 -3.53261,3.50521 -3.00276,2.27299 -7.15789,4.25664 -11.19053,5.34233 -0.42448,0.11429 -0.96714,0.26924 -1.2059,0.34435 -0.23879,0.0751 -0.88998,0.20625 -1.44711,0.29143 -0.55714,0.0852 -1.14631,0.19481 -1.30925,0.24362 -0.42837,0.12833 -1.82064,0.0916 -2.54971,-0.0673 z m 66.74556,-0.54341 c -0.18574,-0.34328 -0.15266,-1.77463 0.0541,-2.33948 0.30331,-0.82876 1.00818,-2.16264 1.94258,-3.67612 0.79397,-1.28601 3.49824,-5.28956 4.72248,-6.99141 0.52961,-0.73623 1.3493,-1.89385 2.215,-3.1282 0.18606,-0.26531 0.64272,-0.91651 1.01478,-1.44711 0.37207,-0.5306 0.74796,-1.09387 0.83533,-1.25171 0.0874,-0.15784 0.38593,-0.63538 0.66343,-1.06121 0.66214,-1.01599 1.44078,-2.36586 2.08827,-3.62021 0.56968,-1.10362 1.39875,-3.15223 1.31116,-3.23983 -0.0723,-0.0723 -3.18573,0.6083 -4.46197,0.97535 -1.84485,0.53057 -2.44975,0.71851 -4.34133,1.34892 -1.16731,0.38903 -2.4263,0.823 -2.79773,0.96437 -2.08614,0.79403 -4.59568,2.00628 -5.72795,2.76692 -1.23309,0.82836 -1.2661,0.85909 -1.26946,1.18196 -0.001,0.16246 -0.0607,0.37136 -0.13119,0.46419 -0.14808,0.19508 -0.79719,0.65123 -0.9267,0.65123 -0.1398,0 -0.28854,-0.67274 -0.28913,-1.30777 -0.001,-0.63413 0.15822,-0.94431 0.72302,-1.41233 0.27313,-0.22634 1.21731,-0.85735 1.64005,-1.09611 0.10612,-0.0599 0.36659,-0.20842 0.57885,-0.32997 0.65,-0.37226 2.42751,-1.25635 2.52595,-1.25635 0.0511,0 0.32843,-0.12593 0.61642,-0.27985 0.94989,-0.50767 5.15238,-1.98424 8.0968,-2.84484 0.70689,-0.20662 4.75995,-1.12438 5.66783,-1.28342 0.26812,-0.0469 0.31353,-0.095 0.31353,-0.33172 0,-0.23815 0.037,-0.27649 0.26531,-0.27467 0.14591,0.001 0.45694,0.0891 0.69119,0.19533 0.40454,0.18353 0.46744,0.18624 1.25416,0.0539 3.85502,-0.64842 6.55734,-0.62538 9.67111,0.0824 1.264,0.28733 1.9765,0.5561 2.58651,0.97572 l 0.48288,0.33215 0.65233,-0.5306 c 0.8619,-0.70109 1.52284,-0.95362 2.26915,-0.86701 0.30782,0.0357 0.62347,0.12877 0.70145,0.20675 1.00423,1.00421 -3.35538,7.46742 -8.05006,11.93441 -0.774,0.73645 -1.76077,1.61554 -2.19282,1.95352 -0.43206,0.33798 -0.81054,0.6796 -0.84107,0.75915 -0.0305,0.0795 0.30127,-0.15999 0.73732,-0.5323 0.54938,-0.46908 1.156,-0.86061 1.97555,-1.27504 1.04257,-0.52721 1.25978,-0.60193 1.833,-0.63044 0.52523,-0.0261 0.71058,0.006 0.96382,0.16431 0.26379,0.16547 0.31339,0.25427 0.31259,0.55986 -10e-4,0.19976 -0.10643,0.58977 -0.23536,0.86672 l -0.23444,0.50351 0.93481,-0.0568 0.9348,-0.0568 0.3859,-0.40191 c 1.03083,-1.07362 1.83629,-1.52215 2.73978,-1.5257 0.73823,-0.003 1.44384,0.16445 1.51898,0.36025 0.0287,0.0748 -0.0251,0.3656 -0.11972,0.64614 -0.34919,1.03595 -0.0858,1.47718 0.82192,1.37676 1.59186,-0.17613 1.72277,-0.25309 2.59075,-1.52317 0.40496,-0.59256 0.44938,-0.71215 0.45611,-1.22787 0.006,-0.49348 0.0455,-0.61114 0.28683,-0.86297 0.21313,-0.22247 0.36471,-0.29159 0.63932,-0.29159 0.73765,0 0.80325,0.14307 0.42025,0.91649 l -0.23885,0.48237 0.23332,0.19294 c 0.12832,0.10613 0.41082,0.3365 0.62777,0.51194 0.69645,0.56322 0.53854,1.06982 -0.80113,2.57018 -0.31269,0.35019 -0.54027,0.66494 -0.50575,0.69946 0.11831,0.11831 1.35522,-0.46798 2.11105,-1.00063 0.43626,-0.30744 0.91539,-0.74869 1.13337,-1.04376 0.435,-0.58882 1.02024,-1.08947 1.63693,-1.40031 0.37171,-0.18737 0.52326,-0.20877 1.10945,-0.15671 0.3734,0.0332 0.77198,0.086 0.88571,0.11746 0.18242,0.0504 0.2614,-0.0546 0.67059,-0.89202 1.18288,-2.42072 2.68147,-4.72247 4.58471,-7.04189 0.81593,-0.99435 2.38253,-2.45796 2.965,-2.77008 0.48141,-0.25797 0.57255,-0.27362 1.35064,-0.23187 1.30053,0.0698 1.50383,0.23173 1.48617,1.18383 -0.0258,1.38981 -1.72506,4.43247 -3.6129,6.46909 -1.75631,1.89473 -3.65351,3.39674 -5.43736,4.30475 -0.7902,0.40223 -0.82433,0.43351 -0.95727,0.87756 -0.0758,0.25327 -0.1654,0.70911 -0.19908,1.01298 -0.0533,0.48106 -0.0317,0.59598 0.16719,0.88875 0.31355,0.46156 0.60398,0.58918 1.18737,0.52176 1.64466,-0.19007 3.70633,-1.16348 4.52363,-2.13579 0.84009,-0.99942 2.25645,-2.07153 3.16879,-2.39858 0.46275,-0.1659 1.41173,-0.11468 1.81507,0.0979 0.20344,0.10723 0.28041,0.0984 0.55276,-0.0635 0.17402,-0.10345 0.46181,-0.18808 0.63952,-0.18808 0.3255,0 0.73264,0.16018 0.73202,0.28799 0,0.0379 -0.36252,0.55221 -0.80519,1.14285 -0.47424,0.63275 -0.91001,1.33659 -1.06087,1.71342 -0.24993,0.62429 -0.3147,0.92693 -0.1984,0.92693 0.14868,0 1.68645,-0.86078 2.52243,-1.41194 0.51264,-0.33799 0.97754,-0.61955 1.03312,-0.6257 0.93686,-0.10358 0.39566,0.54462 -1.6443,1.96942 -1.42592,0.99593 -2.05959,1.32237 -2.56691,1.32237 -0.5745,0 -0.65613,-0.13331 -0.65613,-1.07168 v -0.69833 l -0.21706,0.19255 c -0.89952,0.79791 -2.57427,1.67408 -3.19991,1.67408 -0.23682,0 -0.45837,-0.045 -0.49232,-0.0999 -0.034,-0.055 -0.099,-0.36342 -0.14452,-0.68551 -0.0455,-0.32208 -0.10409,-0.60691 -0.13013,-0.63295 -0.026,-0.026 -0.24908,0.0915 -0.49565,0.2611 -1.12284,0.77254 -3.07141,1.44668 -4.18152,1.44668 -1.1069,0 -1.6859,-0.39386 -1.85693,-1.26316 l -0.10974,-0.55777 -0.59159,0.45321 c -0.81626,0.62533 -1.39483,0.95053 -1.9316,1.0857 -0.85643,0.21564 -1.21654,-0.21398 -1.21654,-1.4514 0,-0.37312 -0.0216,-0.67842 -0.048,-0.67842 -0.0264,0 -0.31941,0.2 -0.65119,0.44444 -1.0002,0.73689 -2.00463,1.1561 -2.47523,1.03303 -0.25225,-0.0659 -0.39549,-0.43905 -0.39302,-1.02376 0.003,-0.63244 0.23215,-1.13733 0.80552,-1.77233 l 0.45022,-0.4986 -0.29825,-0.21236 c -0.28906,-0.20585 -0.30213,-0.20683 -0.42587,-0.032 -0.31374,0.4432 -0.73266,0.92907 -0.94534,1.09636 -0.71955,0.566 -3.0818,1.07117 -3.632,0.77671 -0.13604,-0.0728 -0.24057,-0.0208 -0.50015,0.24877 -0.45807,0.47571 -1.89277,1.34551 -2.52028,1.52793 -0.47047,0.13676 -0.56001,0.13739 -0.87396,0.006 -0.41321,-0.17266 -0.50309,-0.46185 -0.49098,-1.57965 l 0.008,-0.7088 -0.53945,0.0674 c -1.19599,0.14943 -1.56292,0.33703 -2.49195,1.27405 -1.29352,1.30465 -3.35734,2.63269 -4.0913,2.63269 -0.43163,0 -0.4966,-0.13917 -0.50954,-1.09146 -0.009,-0.62694 -0.0381,-0.58727 1.05188,-1.40821 0.44443,-0.3347 1.69467,-0.95265 2.26715,-1.12057 0.55054,-0.16149 1.14323,-0.53912 1.46093,-0.93085 0.43407,-0.5352 0.85443,-1.16113 0.85443,-1.27227 0,-0.18105 -0.88571,0.0245 -1.65534,0.38406 -1.36035,0.63563 -3.05414,2.04145 -3.62245,3.00658 -0.13385,0.2273 -0.37632,0.48202 -0.53883,0.56606 -0.27263,0.14099 -0.30475,0.14011 -0.4156,-0.0114 -0.0661,-0.0904 -0.15029,-0.48617 -0.18715,-0.8796 -0.0627,-0.66887 -0.1445,-0.84707 -0.28474,-0.62015 -0.0862,0.13948 -1.75998,1.29311 -2.52335,1.7392 -0.51588,0.30147 -0.75661,0.38453 -1.11442,0.38453 -0.5745,0 -0.65612,-0.13332 -0.65612,-1.07168 v -0.69847 l -0.21707,0.19254 c -0.90593,0.80362 -2.57399,1.67408 -3.20799,1.67408 -0.51611,0 -0.56365,-0.077 -0.66987,-1.08424 -0.0601,-0.56962 -0.0397,-0.71301 0.16393,-1.15798 0.42989,-0.93898 2.39235,-2.60464 3.5632,-3.0243 0.4674,-0.16753 1.41434,-0.11742 1.81975,0.0963 0.20342,0.10724 0.2804,0.0984 0.55275,-0.0635 0.17402,-0.10344 0.46182,-0.18808 0.63951,-0.18808 0.32551,0 0.73265,0.16018 0.73202,0.28799 0,0.0379 -0.3625,0.55221 -0.80518,1.14286 -0.89386,1.19265 -1.57942,2.64619 -1.24454,2.63873 0.26661,-0.006 3.0561,-1.6865 3.31889,-1.9995 0.0783,-0.0933 0.26983,-0.49501 0.42562,-0.8928 0.31846,-0.81311 1.44578,-3.00102 2.11038,-4.09586 0.69156,-1.13922 2.04912,-3.10734 2.79804,-4.05646 0.37682,-0.47755 0.79911,-1.02021 0.93843,-1.20593 0.13932,-0.18571 0.53995,-0.65384 0.89028,-1.04027 0.35032,-0.38645 0.63695,-0.73954 0.63695,-0.78462 0,-0.0451 -0.22791,-0.18914 -0.50648,-0.3201 -2.00709,-0.94362 -4.89366,-1.27369 -8.51381,-0.97351 -1.52146,0.12614 -3.22232,0.39234 -3.39449,0.53124 -0.0629,0.0508 -0.14446,0.23038 -0.18122,0.39915 -0.17568,0.80673 -0.61945,1.91018 -1.44255,3.58699 -1.25225,2.55112 -2.78533,4.96893 -6.02282,9.49867 -4.03926,5.65153 -6.33946,9.1852 -7.18085,11.03148 -0.47754,1.04789 -0.54718,1.3425 -0.41735,1.76553 0.10205,0.33252 0.0921,0.36502 -0.1772,0.58051 -0.3766,0.30133 -0.86345,0.30712 -1.02304,0.0122 z m 43.4198,-12.12772 c 0.20386,-0.104 0.70025,-0.50557 1.10309,-0.89237 0.58163,-0.55849 0.74508,-0.77777 0.7939,-1.06506 l 0.0615,-0.36177 h -0.59371 c -0.57293,0 -0.6104,0.0156 -1.07059,0.44606 -0.51903,0.48549 -0.96196,1.29903 -0.96196,1.76685 0,0.35352 0.13961,0.37575 0.66779,0.10629 z m -29.1039,-0.24782 c 0.68504,-0.34407 2.0121,-1.23077 2.42542,-1.62058 0.20048,-0.18907 0.3487,-0.42143 0.3487,-0.54661 0,-0.19386 -0.0342,-0.21091 -0.31122,-0.15549 -0.62869,0.12574 -1.17874,0.4931 -2.11112,1.40998 -0.8396,0.82562 -1.09602,1.15668 -0.89588,1.15668 0.0321,0 0.27693,-0.10979 0.5441,-0.24398 z m 39.55419,0 c 0.68504,-0.34407 2.0121,-1.23077 2.42541,-1.62058 0.20049,-0.18907 0.34872,-0.42143 0.34872,-0.54661 0,-0.19386 -0.0341,-0.21091 -0.31123,-0.15549 -0.62869,0.12574 -1.17873,0.4931 -2.11112,1.40998 -0.8396,0.82562 -1.09601,1.15668 -0.89589,1.15668 0.0321,0 0.27693,-0.10979 0.54411,-0.24398 z m -22.15864,-0.48459 c 0.85342,-0.51024 1.29993,-0.99139 1.36411,-1.46996 0.034,-0.25306 0.10999,-0.4119 0.20999,-0.43855 0.0913,-0.0243 0.056,-0.0461 -0.0844,-0.052 -0.65532,-0.0279 -2.06099,1.03347 -2.38,1.79698 -0.25487,0.61002 0.0499,0.66602 0.89033,0.16357 z m -6.88431,-3.87431 c 2.3837,-2.21281 4.83665,-5.08267 6.37312,-7.45632 0.61399,-0.94851 1.35382,-2.39042 1.50207,-2.92747 0.1021,-0.36986 0.10168,-0.37074 -0.15204,-0.30705 -0.85984,0.2158 -4.18593,3.92352 -6.40664,7.1417 -1.28114,1.8566 -3.04765,4.97471 -2.70905,4.78182 0.0921,-0.0525 0.71871,-0.60716 1.39254,-1.23268 z m 24.52069,0.081 c 2.66485,-1.76502 5.01963,-4.51058 6.09215,-7.10316 0.42967,-1.03863 0.49529,-1.41871 0.28181,-1.63218 -0.36073,-0.36074 -1.20188,0.11985 -2.50443,1.43088 -1.60531,1.61579 -2.91015,3.36635 -4.51953,6.06336 -0.68145,1.14198 -1.31509,2.3133 -1.31509,2.43103 0,0.0665 0.79411,-0.41436 1.96509,-1.18993 z m -80.05418,6.1176 c -0.26184,-0.0703 -0.53658,-0.20845 -0.61053,-0.30702 -0.3307,-0.44085 -0.52181,-0.96669 -0.57293,-1.57652 l -0.055,-0.65659 -0.7781,0.57694 c -1.16963,0.86722 -2.15637,1.30121 -2.65941,1.16966 -0.25227,-0.0659 -0.39548,-0.43906 -0.39303,-1.02376 0.003,-0.63245 0.23214,-1.13733 0.80552,-1.77233 l 0.45021,-0.49861 -0.29823,-0.21235 c -0.28906,-0.20585 -0.30214,-0.20683 -0.42589,-0.0321 -0.61573,0.86989 -1.39164,1.5811 -2.54541,2.33317 -1.32699,0.86498 -1.91457,1.07335 -3.0354,1.07645 -0.52082,0.001 -1.03461,-0.0443 -1.14173,-0.10164 -0.29683,-0.15885 -0.46787,-0.68506 -0.46787,-1.43944 0,-1.03885 0.34321,-1.57466 1.84094,-2.87414 0.41582,-0.36077 1.27749,-0.6141 1.83657,-0.53993 0.266,0.0353 0.54587,0.1264 0.62196,0.20248 0.40111,0.40111 -0.10487,1.32178 -1.10018,2.00184 -0.66148,0.45197 -1.4525,0.76239 -1.70036,0.66727 -0.0956,-0.0367 -0.1683,0.0657 -0.24249,0.34118 -0.11595,0.43058 -0.0312,0.70683 0.26523,0.8644 0.33672,0.17899 1.5972,-0.14519 2.67494,-0.68796 0.54696,-0.27545 1.22107,-0.72459 1.28187,-0.85406 0.0152,-0.0325 0.15908,-0.2061 0.31967,-0.38589 0.16058,-0.17979 0.49384,-0.62232 0.7406,-0.98339 0.40495,-0.59255 0.44937,-0.71214 0.45611,-1.22787 0.006,-0.49346 0.0455,-0.61113 0.28682,-0.86296 0.21313,-0.22247 0.36471,-0.2916 0.63933,-0.2916 0.73764,0 0.80325,0.14307 0.42026,0.91651 l -0.23888,0.48236 0.23332,0.19295 c 0.12833,0.10612 0.41082,0.33649 0.62779,0.51193 0.69645,0.56321 0.53854,1.06982 -0.80114,2.57018 -0.31269,0.35019 -0.54084,0.66438 -0.50702,0.6982 0.12291,0.12292 1.38356,-0.47747 2.13345,-1.01606 0.65085,-0.46745 0.78616,-0.61295 0.88387,-0.95038 0.29038,-1.00299 1.77857,-3.60021 2.72532,-4.75632 0.6433,-0.78556 2.93381,-4.15279 2.86896,-4.21762 -0.0927,-0.0927 -1.85738,0.18391 -2.23266,0.3499 -0.21797,0.0964 -0.51312,0.29212 -0.6559,0.4349 -0.33495,0.33494 -0.46651,0.24694 -0.39337,-0.26312 0.0743,-0.51783 0.34461,-0.7643 1.11813,-1.0193 0.51845,-0.17092 1.93676,-0.39442 2.51978,-0.39707 0.11682,-7e-4 0.25343,-0.17393 0.41494,-0.52668 0.22639,-0.49455 0.23184,-0.54314 0.0911,-0.81524 -0.0823,-0.15914 -0.14962,-0.44344 -0.14962,-0.63179 0,-0.33566 0.008,-0.34245 0.389,-0.34245 0.50265,0 1.01164,0.21531 1.15873,0.49015 0.11907,0.22249 0.0832,1.2237 -0.0562,1.56856 -0.0664,0.16434 -0.0296,0.1727 0.49663,0.11304 1.49071,-0.16903 2.97595,-0.55993 3.32391,-0.87483 0.21531,-0.19485 0.66927,-0.091 0.66927,0.15313 0,0.0962 -0.17963,0.32872 -0.39916,0.51664 -0.61925,0.53005 -2.06193,0.94131 -3.78305,1.07842 -0.71249,0.0568 -0.76686,0.0773 -0.91651,0.34605 -0.34424,0.61819 -1.45489,2.30799 -2.20973,3.36199 -0.43699,0.61021 -1.10484,1.54359 -1.48409,2.07418 -2.07141,2.89807 -2.65265,4.52435 -1.98017,5.54053 0.1416,0.21396 0.35604,0.41377 0.47655,0.44401 0.52778,0.13247 3.68247,-1.22554 4.43752,-1.91022 0.25164,-0.2282 0.40146,-0.49296 0.5586,-0.98715 0.53089,-1.66974 2.71593,-5.79046 4.55496,-8.59009 1.86233,-2.83508 3.18486,-4.34572 4.1963,-4.79313 0.33142,-0.1466 0.5317,-0.17272 0.92205,-0.12027 0.27426,0.0369 0.55292,0.11089 0.61924,0.1645 0.2006,0.16216 0.14079,1.08911 -0.12048,1.86745 -0.45757,1.36305 -1.96199,4.07138 -3.20586,5.77131 -1.70731,2.3333 -3.97312,4.89665 -5.04939,5.71247 -0.52097,0.39489 -0.70161,0.66244 -0.9062,1.34223 l -0.12586,0.41819 0.91659,-0.78986 c 2.53256,-2.18241 2.7777,-2.3429 3.42964,-2.24512 0.70904,0.10632 0.69313,0.32169 -0.15367,2.08234 -0.5582,1.16058 -0.63541,1.4471 -0.38993,1.4471 0.44173,0 2.15912,-1.09617 3.03947,-1.94002 0.71015,-0.68072 2.00769,-1.56779 2.60791,-1.78292 0.4674,-0.16753 1.41434,-0.11742 1.81974,0.0963 0.20343,0.10724 0.28041,0.0984 0.55276,-0.0635 0.17403,-0.10345 0.46181,-0.18808 0.63951,-0.18808 0.32551,0 0.73265,0.16018 0.73202,0.28799 0,0.0379 -0.36251,0.55221 -0.80519,1.14285 -0.47423,0.63275 -0.91001,1.33659 -1.06086,1.71341 -0.24993,0.62431 -0.3147,0.92694 -0.1984,0.92694 0.14867,0 1.68646,-0.86077 2.52242,-1.41194 0.51264,-0.33798 0.97755,-0.61955 1.03314,-0.6257 0.93685,-0.10357 0.39565,0.54462 -1.64432,1.96943 -1.42593,0.99593 -2.05959,1.32236 -2.5669,1.32236 -0.5745,0 -0.65613,-0.13332 -0.65613,-1.07168 v -0.69847 l -0.21707,0.19254 c -0.90594,0.80362 -2.57399,1.67408 -3.20798,1.67408 -0.51556,0 -0.56372,-0.0775 -0.66914,-1.07732 l -0.0678,-0.64319 -0.61122,0.42728 c -0.79446,0.55537 -1.19081,0.7144 -1.78047,0.7144 -0.40048,0 -0.50215,-0.0367 -0.6007,-0.21707 -0.1795,-0.32843 -0.14329,-1.77742 0.0557,-2.22931 0.0901,-0.20472 0.14629,-0.38981 0.1248,-0.41131 -0.0215,-0.0215 -0.63221,0.52517 -1.35711,1.21481 -1.34811,1.28254 -1.86611,1.64288 -2.36167,1.64288 -0.23777,0 -0.2905,-0.0466 -0.3415,-0.30148 -0.0332,-0.16581 -0.0603,-0.51674 -0.0603,-0.77983 0,-0.26309 -0.0325,-0.46388 -0.0724,-0.44619 -0.0398,0.0177 -0.54989,0.35155 -1.13355,0.74192 -1.28872,0.86194 -1.90978,1.1826 -2.80814,1.44984 -0.7852,0.23359 -0.87781,0.23742 -1.52687,0.0632 z m 14.53658,-1.83967 c 0.68504,-0.34407 2.01211,-1.23077 2.42542,-1.62058 0.20047,-0.18907 0.34871,-0.42143 0.34871,-0.54661 0,-0.19386 -0.0342,-0.21091 -0.31123,-0.15549 -0.62869,0.12574 -1.17872,0.4931 -2.11113,1.40998 -0.83958,0.82562 -1.096,1.15668 -0.89587,1.15668 0.0321,0 0.27694,-0.10979 0.5441,-0.24398 z m -23.84405,-2.05607 c 0.54965,-0.34857 1.12647,-0.85389 1.26043,-1.10418 0.0976,-0.18239 0.0818,-0.19057 -0.25994,-0.13511 -0.38434,0.0624 -0.68017,0.29949 -1.31645,1.05515 -0.44219,0.52513 -0.3273,0.59209 0.31596,0.18414 z m 20.58925,-4.71794 c 1.59526,-1.987 3.61113,-5.2914 3.99814,-6.5537 0.26657,-0.8695 0.32475,-1.28524 0.17984,-1.28524 -0.3168,0 -2.25253,2.35022 -3.61537,4.38955 -1.27417,1.90664 -3.28485,5.44057 -3.79022,6.6616 -0.1941,0.46901 -0.1747,0.45402 1.09851,-0.8486 0.71286,-0.72934 1.67096,-1.79296 2.1291,-2.36361 z m -47.86955,2.00617 c -0.42498,-0.25913 -0.54661,-0.52722 -0.47528,-1.0476 0.10385,-0.75771 0.86821,-2.12302 1.8561,-3.31537 0.36889,-0.44522 1.37744,-1.32555 1.89313,-1.65243 0.1459,-0.0925 0.2653,-0.22867 0.2653,-0.30261 0,-0.0739 0.0325,-0.14892 0.0724,-0.1666 0.10933,-0.0486 0.41002,-0.65397 0.41002,-0.82551 0,-0.0828 0.15195,-0.53487 0.33765,-1.00451 0.18571,-0.46964 0.33766,-0.87285 0.33766,-0.89602 0,-0.12218 -1.44474,0.53045 -1.76778,0.79855 -0.11849,0.0983 -0.36008,0.23441 -1.22658,0.69089 -0.49707,0.26185 -0.58265,0.28793 -0.9448,0.28793 -0.52168,0 -0.72757,-0.25102 -0.71347,-0.86988 0.012,-0.52391 -0.0502,-0.58131 -0.3137,-0.29008 -0.0949,0.10488 -0.21051,0.16723 -0.25688,0.13857 -0.0464,-0.0286 -0.15221,0.0158 -0.23518,0.0987 -0.083,0.083 -0.26865,0.15087 -0.41259,0.15087 -0.19307,0 -0.31023,0.0823 -0.44656,0.31354 -0.23075,0.39146 -0.7976,0.93494 -1.0931,1.04807 -0.12283,0.047 -0.43443,0.0855 -0.69244,0.0855 -0.39165,0 -0.50201,-0.0419 -0.6687,-0.25377 -0.10978,-0.13959 -0.24207,-0.41143 -0.29394,-0.60412 -0.14433,-0.53595 -0.007,-2.44527 0.20327,-2.82478 0.0684,-0.12348 0.1159,-0.25475 0.10557,-0.29171 -0.0195,-0.0696 0.39223,-1.02185 0.80514,-1.86228 0.57048,-1.16111 1.85854,-3.00183 2.73015,-3.90156 0.75068,-0.77485 1.03479,-0.85348 1.38436,-0.38306 0.17794,0.23945 0.17924,0.27996 0.032,0.99262 -0.0844,0.40864 -0.35308,1.16456 -0.59705,1.67984 -0.43007,0.90832 -1.06555,2.04452 -1.19845,2.14277 -0.0358,0.0265 -0.0957,0.14592 -0.133,0.2653 -0.0372,0.11939 -0.10764,0.21707 -0.15641,0.21707 -0.0488,0 -0.15217,0.15195 -0.22975,0.33766 -0.0776,0.18571 -0.20843,0.33765 -0.29073,0.33765 -0.0867,0 -0.14963,0.0835 -0.14963,0.19861 0,0.17783 -0.47611,0.88998 -0.72355,1.08229 -0.053,0.0412 -0.21085,0.0541 -0.35065,0.0288 -0.22093,-0.0402 -0.26192,-0.007 -0.31354,0.25062 -0.077,0.38492 -0.077,1.76648 0,1.84345 0.0959,0.0958 0.48047,-0.2023 0.60033,-0.46533 0.0992,-0.21761 0.0858,-0.25193 -0.12984,-0.33392 -0.34721,-0.132 -0.31368,-0.50135 0.085,-0.93636 0.30198,-0.32951 0.37221,-0.35799 0.97824,-0.39658 0.53159,-0.0338 0.66924,-0.0124 0.74068,0.11524 0.0483,0.0862 0.14676,0.15681 0.21887,0.15681 0.0721,0 0.57066,-0.36901 1.10787,-0.82003 0.81415,-0.68349 1.03246,-0.82003 1.31121,-0.82003 0.32549,0 0.33442,0.0102 0.33442,0.38348 0,0.33986 -0.31398,1.06163 -0.80702,1.85515 -0.0562,0.0904 -0.0739,0.19266 -0.0395,0.22714 0.0745,0.0745 1.44609,-0.66646 1.61865,-0.87438 0.0659,-0.0794 0.16023,-0.14428 0.20974,-0.14428 0.0495,0 0.5501,-0.30389 1.1125,-0.67531 0.80567,-0.53211 1.09868,-0.67532 1.38172,-0.67532 0.48624,0 0.60421,0.17076 0.54763,0.79267 -0.0451,0.4963 -0.25408,1.32926 -0.35774,1.42622 -0.0284,0.0265 -0.10065,0.22189 -0.16062,0.43414 -0.06,0.21223 -0.22005,0.64637 -0.35568,0.96473 -0.13564,0.31836 -0.20779,0.59245 -0.16034,0.60908 0.0474,0.0166 0.25167,-0.0157 0.45381,-0.0718 0.94988,-0.26378 1.75334,-0.0104 1.89468,0.59749 0.10868,0.46741 0.0335,0.65001 -0.26774,0.65001 -0.15986,0 -0.29777,-0.0901 -0.40629,-0.26531 -0.0904,-0.14591 -0.2299,-0.31956 -0.31009,-0.38589 -0.18923,-0.15654 -0.8309,-0.15183 -1.29421,0.01 -0.35517,0.12368 -0.6264,0.47265 -0.94852,1.22051 -0.1752,0.40672 -0.49411,1.09897 -0.60002,1.3024 -0.0553,0.10612 -0.18499,0.3666 -0.28832,0.57884 -0.10335,0.21224 -0.39704,0.70368 -0.65269,1.09209 -0.25563,0.38841 -0.49138,0.78998 -0.52389,0.89238 -0.0325,0.1024 -0.11992,0.18619 -0.19426,0.18619 -0.0767,0 -0.11261,0.0589 -0.083,0.13599 0.0314,0.0818 -0.0275,0.1613 -0.14773,0.19945 -0.10996,0.0349 -0.19992,0.10602 -0.19992,0.15805 0,0.052 -0.1194,0.19968 -0.2653,0.32811 -0.32401,0.28518 -0.73789,0.30368 -1.15153,0.0515 z m 0.48094,-0.84895 c 0.32861,-0.34872 0.74294,-0.87209 0.74294,-0.93846 0,-0.0379 0.0817,-0.18408 0.1817,-0.32492 0.0999,-0.14084 0.49817,-0.86207 0.88496,-1.60274 0.74165,-1.42016 0.70588,-1.52814 -0.17598,-0.5312 -0.19805,0.22389 -0.43605,0.48838 -0.5289,0.58774 -0.0929,0.0994 -0.16884,0.20414 -0.16884,0.23282 0,0.0785 -0.42342,0.66664 -0.50647,0.70356 -0.0398,0.0177 -0.0724,0.0945 -0.0724,0.17061 0,0.0761 -0.10658,0.34386 -0.23683,0.59492 -0.24919,0.48032 -0.46665,1.2765 -0.34864,1.2765 0.0381,0 0.14092,-0.076 0.22842,-0.16883 z m -3.02473,-10.3468 c 0.16106,-0.14329 1.14942,-1.43432 1.25553,-1.64005 0.0685,-0.13265 0.20099,-0.32801 0.29459,-0.43413 0.18754,-0.21261 0.75989,-1.2986 1.04233,-1.97771 0.1968,-0.4732 0.18687,-0.7637 -0.0189,-0.55386 -0.20032,0.20424 -0.73534,1.01764 -0.73534,1.11793 0,0.0523 -0.0325,0.10965 -0.0724,0.12732 -0.1089,0.0484 -0.69943,0.91751 -0.69943,1.02939 0,0.0536 -0.099,0.22013 -0.21995,0.37012 -0.12097,0.14999 -0.33416,0.48977 -0.47375,0.75507 -0.1396,0.2653 -0.36622,0.69505 -0.50361,0.955 -0.28601,0.54113 -0.34664,0.91774 -0.0866,0.5377 0.0898,-0.1312 0.18763,-0.26025 0.21747,-0.28678 z M 136.91354,82.744286 c -1.25274,-0.245794 -2.48418,-0.849554 -3.31179,-1.623736 -0.68713,-0.64277 -1.05635,-1.246774 -1.27479,-2.085461 -0.64603,-2.480297 0.89415,-4.709151 3.90815,-5.655613 0.64592,-0.202827 0.90174,-0.225898 2.50417,-0.225898 1.60358,0 1.85796,0.02297 2.50588,0.226426 0.8148,0.255848 1.48207,0.573212 1.83636,0.873377 l 0.24025,0.203599 -0.38589,0.335715 c -0.21224,0.184641 -0.42931,0.336174 -0.48237,0.336732 -0.0531,10e-4 -0.29183,-0.129703 -0.5306,-0.289475 -0.23877,-0.159791 -0.78143,-0.404187 -1.20592,-0.543115 -0.64491,-0.211074 -0.95418,-0.253416 -1.88123,-0.257598 -1.78347,-0.008 -3.13083,0.471496 -4.15247,1.477929 -0.86396,0.851107 -1.22695,1.877875 -1.05177,2.975138 0.24092,1.509189 1.57415,2.760546 3.47467,3.261299 0.7664,0.201938 2.43786,0.223671 3.17667,0.04134 0.57163,-0.141087 1.28612,-0.448816 1.84345,-0.79397 l 0.34812,-0.215589 0.39956,0.316445 c 0.21975,0.174048 0.39954,0.357164 0.39954,0.406942 0,0.136036 -0.83668,0.639409 -1.43464,0.863138 -0.94575,0.353851 -1.78993,0.477808 -3.17828,0.466698 -0.72612,-0.0058 -1.51229,-0.04826 -1.74707,-0.09432 z m 46.44479,-0.0546 c -1.36357,-0.290276 -2.47453,-1.062367 -3.02075,-2.099376 -0.22769,-0.432272 -0.25842,-0.599646 -0.25842,-1.407131 0,-0.816739 0.0293,-0.972299 0.26959,-1.429167 0.55069,-1.047211 1.65129,-1.792634 3.07788,-2.08463 1.86794,-0.382328 3.89388,0.01864 4.7958,0.949169 0.37792,0.38992 0.33886,0.500079 -0.27559,0.777153 l -0.38098,0.171801 -0.41325,-0.353715 c -0.61267,-0.524432 -1.51055,-0.771183 -2.57528,-0.707725 -1.34477,0.08013 -2.31137,0.579673 -2.80961,1.452044 -0.34999,0.612838 -0.44531,1.181311 -0.2969,1.770716 0.31139,1.236669 1.4413,2.026985 3.04519,2.129992 1.18822,0.07631 1.94802,-0.14572 2.96685,-0.866997 0.14009,-0.09918 0.24358,-0.08022 0.60296,0.110443 0.23861,0.126585 0.43385,0.285584 0.43385,0.353343 0,0.171723 -0.66879,0.683549 -1.2005,0.918749 -1.05077,0.464803 -2.65773,0.592737 -3.96084,0.315331 z m 10.78283,0.06348 c -0.92298,-0.195009 -1.70846,-0.692254 -2.01235,-1.273939 -0.0748,-0.143296 -0.13608,-0.484689 -0.13608,-0.758665 0,-0.85228 0.4704,-1.432616 1.46784,-1.810859 0.32986,-0.125101 0.88608,-0.163289 2.75286,-0.189049 1.91452,-0.0264 2.3395,-0.05657 2.3395,-0.166015 0,-0.503626 -0.24032,-1.148908 -0.53917,-1.447763 -0.81867,-0.818694 -3.10327,-0.844452 -4.68737,-0.05286 l -0.54767,0.273673 -0.29653,-0.368989 c -0.16308,-0.202934 -0.29651,-0.395519 -0.29651,-0.427952 0,-0.102039 1.18058,-0.613522 1.78476,-0.773255 0.31836,-0.08416 1.03649,-0.178689 1.59588,-0.210058 2.13165,-0.11954 3.54978,0.439191 4.08587,1.609811 0.1816,0.396546 0.20188,0.657585 0.23434,3.014783 l 0.0356,2.580675 h -0.67928 -0.67928 l -0.0294,-0.430523 -0.0294,-0.430533 -0.42606,0.286856 c -0.23433,0.157768 -0.64676,0.356334 -0.9165,0.441272 -0.57035,0.179598 -2.41648,0.261116 -3.02096,0.133396 z m 3.22445,-1.160106 c 0.8337,-0.410422 1.18732,-0.888241 1.18732,-1.604329 v -0.516125 l -1.32652,0.0061 c -2.65849,0.01215 -3.48442,0.202425 -3.8151,0.878879 -0.15659,0.320314 -0.15968,0.386783 -0.0322,0.691922 0.27659,0.66203 1.08147,0.953155 2.46115,0.890205 0.77223,-0.03524 0.99617,-0.08613 1.52531,-0.34663 z m -49.75076,-3.905222 v -5.06487 h 0.67532 0.67531 v 5.06487 5.064859 h -0.67531 -0.67532 z m 6.5602,1.495342 v -3.569516 h 0.67532 0.67532 v 3.569516 3.569517 h -0.67532 -0.67532 z m 6.46375,0 v -3.569516 h 0.62707 0.62709 v 0.578196 0.578207 l 0.4308,-0.328857 c 0.23695,-0.180858 0.68192,-0.428881 0.98887,-0.551157 0.49682,-0.197911 0.72206,-0.222624 2.05336,-0.225233 1.33787,-0.0026 1.55273,0.02029 2.04014,0.217357 0.73702,0.298005 1.35431,0.861241 1.63134,1.488483 0.21234,0.48079 0.2276,0.650235 0.26528,2.946076 l 0.0399,2.435961 h -0.73419 -0.73421 v -2.318463 c 0,-2.522922 -0.0337,-2.721683 -0.54284,-3.199463 -0.51696,-0.485147 -1.14713,-0.69287 -2.11017,-0.695528 -1.52558,-0.0042 -2.51012,0.461676 -2.98364,1.41188 -0.24436,0.490367 -0.24825,0.53177 -0.24825,2.649869 v 2.151705 h -0.6753 -0.67532 z m 13.79573,0 v -3.569516 h 0.6753 0.67533 v 3.569516 3.569517 h -0.67533 -0.6753 z m -20.68878,-4.818245 c 0.0504,-0.05007 0.5909,-0.440333 1.20111,-0.86725 l 1.10944,-0.776215 0.91305,-10e-4 c 1.10128,-0.0013 1.11727,-0.02623 -0.63793,0.996455 -1.26631,0.737802 -1.26964,0.739063 -1.97289,0.739063 -0.44202,0 -0.67028,-0.03392 -0.61278,-0.09105 z m 20.6105,-0.588036 c -0.12417,-0.115661 -0.21115,-0.312839 -0.21115,-0.478601 0,-0.437373 0.32475,-0.67533 0.92168,-0.67533 0.89062,0 1.29731,0.587529 0.771,1.113836 -0.31752,0.317521 -1.15931,0.340299 -1.48153,0.0401 z"
         id="path2" />
      <path
         style="opacity:0.830546;fill:#666363;fill-opacity:1;stroke-width:0.0977191"
         d="m 140.65206,114.13147 c -0.159,-0.0223 -0.70105,-0.0879 -1.20456,-0.14554 -1.07183,-0.12277 -3.45584,-0.71295 -4.62549,-1.14507 -1.71778,-0.63464 -3.60425,-1.65091 -4.98446,-2.68521 -0.32994,-0.24724 -0.60096,-0.50374 -0.60228,-0.56999 -0.001,-0.0662 -0.0349,-0.12183 -0.0747,-0.1235 -0.0397,-0.002 -0.19445,-0.11053 -0.3438,-0.24189 l -0.27151,-0.23886 1.70441,-2.43222 c 0.93742,-1.33771 1.73838,-2.46921 1.77993,-2.51442 0.0415,-0.0452 0.3111,0.0918 0.59906,0.30455 2.35992,1.74338 4.94648,2.74159 7.78909,3.00601 2.01796,0.1877 3.46709,-0.21938 4.04934,-1.1375 0.32016,-0.50483 0.37818,-1.18868 0.13997,-1.64934 -0.30813,-0.59585 -1.52697,-1.17941 -4.67775,-2.23966 -3.49774,-1.17698 -5.66295,-2.31647 -7.15122,-3.763473 -0.97284,-0.94586 -1.35325,-1.444263 -1.75266,-2.296268 -0.82117,-1.751729 -0.85601,-4.311719 -0.0849,-6.237965 1.10426,-2.758367 3.99209,-4.828691 7.78421,-5.580614 1.35191,-0.268064 4.66217,-0.239862 6.00896,0.05119 1.27829,0.276243 2.79106,0.783232 3.9593,1.326914 0.61247,0.285028 1.33216,0.676346 1.92258,1.030178 0.18691,0.105938 1.947,1.281454 1.947,1.281454 -0.0644,0.242168 -3.04344,5.434826 -3.11698,5.434826 -0.0451,0 -0.31929,-0.151899 -0.60952,-0.337555 -1.38642,-0.886879 -3.14524,-1.6162 -4.69646,-1.947439 -1.20127,-0.256515 -3.17943,-0.232368 -4.08924,0.04992 -1.30675,0.405457 -1.88297,1.452809 -1.35406,2.461185 0.15393,0.293456 1.41149,0.805187 4.46119,1.815356 1.59002,0.526669 3.25952,1.113496 3.71003,1.30406 1.4216,0.601336 2.8423,1.464655 3.67117,2.230868 1.87821,1.736223 2.4693,3.260223 2.374,6.120813 -0.0807,2.42146 -0.65164,3.9167 -2.09422,5.48439 -1.49288,1.62233 -3.44443,2.67211 -5.87825,3.162 -0.87953,0.17703 -3.60664,0.31873 -4.28821,0.22281 z m 81.38321,-0.0423 c -3.99449,-0.41856 -7.36376,-2.18044 -10.08456,-5.27348 -1.75807,-1.99858 -2.75889,-4.10031 -3.2821,-6.89242 -0.24123,-1.28722 -0.24003,-4.850449 0.002,-6.190047 0.2103,-1.163642 0.7921,-2.960728 1.25169,-3.866263 1.88147,-3.707037 5.63239,-6.505049 9.88325,-7.372427 1.2366,-0.252332 3.618,-0.33937 5.0366,-0.184104 3.45767,0.378458 6.15787,1.644072 8.72441,4.089229 1.71654,1.635364 2.69755,3.12586 3.34433,5.08122 0.55864,1.688866 0.65275,2.473273 0.70671,5.890104 l 0.0483,3.059568 h -10.33021 -10.3302 l 0.0653,0.31319 c 0.0982,0.47101 0.51905,1.37454 0.87066,1.86909 0.54571,0.76755 1.89114,1.57885 3.29133,1.98469 0.64227,0.18615 0.96677,0.21665 2.24447,0.21093 1.60791,-0.007 2.28016,-0.12115 3.455,-0.5857 0.91305,-0.36102 1.78935,-0.89328 2.56778,-1.55964 0.54225,-0.46419 0.70155,-0.55548 0.81218,-0.46545 0.0757,0.0616 1.24102,1.30416 2.58963,2.76124 l 2.45203,2.64923 -0.566,0.50939 c -2.17263,1.9554 -4.93734,3.28925 -7.94833,3.83476 -0.97944,0.17744 -3.6824,0.25446 -4.80435,0.13689 z m 6.72877,-18.572767 c -0.14692,-0.792803 -0.46746,-1.631 -0.84539,-2.210644 -0.40679,-0.623894 -0.99942,-1.035098 -2.1053,-1.460787 -0.59453,-0.228848 -0.77226,-0.25019 -2.09511,-0.25152 -1.33645,-0.0014 -1.5036,0.01886 -2.21638,0.267889 -1.71132,0.597911 -3.10934,1.745434 -3.75052,3.078527 -0.18974,0.394468 -0.34497,0.78855 -0.34497,0.87574 0,0.145345 0.47571,0.158526 5.72124,0.158526 h 5.72125 z m 43.21235,18.571427 c -2.81854,-0.35543 -5.15067,-1.56539 -7.12723,-3.69776 -1.53057,-1.65122 -2.22925,-3.21309 -2.44079,-5.4563 -0.17074,-1.81052 0.0848,-3.45065 0.75767,-4.86415 1.2669,-2.661145 4.333,-4.334763 8.72709,-4.763656 0.57896,-0.05651 2.65583,-0.102746 4.61524,-0.102746 h 3.5626 l -0.0634,-0.681507 c -0.0759,-0.816892 -0.37608,-1.758067 -0.69462,-2.178016 -0.27529,-0.362941 -1.02177,-0.733728 -1.82337,-0.905704 -0.79436,-0.170413 -2.52399,-0.147215 -3.55065,0.04764 -1.73874,0.329999 -4.12524,1.274932 -5.42379,2.147544 -0.3111,0.20906 -0.61821,0.410889 -0.68246,0.448509 -0.073,0.04276 -0.2129,-0.0768 -0.37313,-0.318913 -0.14097,-0.213023 -0.29065,-0.366087 -0.33263,-0.340143 -0.042,0.02594 -0.84585,-1.069709 -1.78641,-2.43478 -0.94054,-1.365082 -1.75079,-2.534951 -1.80059,-2.599719 -0.20989,-0.273097 3.04411,-2.112988 5.06092,-2.861569 2.48947,-0.924016 4.50612,-1.258695 7.58782,-1.259252 1.97556,0 2.40307,0.02759 3.3499,0.219028 2.6394,0.533676 4.51701,1.510753 6.23878,3.246584 1.35103,1.362053 2.06595,2.597256 2.50439,4.326999 0.4023,1.58709 0.43431,2.494777 0.43431,12.314661 v 9.33062 h -3.75821 -4.45323 l 0.0205,-1.55431 v -0.87976 l -0.40954,0.35355 c -1.39994,1.20854 -2.69695,1.92374 -4.12378,2.27394 -0.94413,0.23172 -2.93448,0.32552 -4.01539,0.18921 z m 4.5941,-7.47797 c 0.39549,-0.13239 1.01219,-0.43558 1.37047,-0.67377 1.37971,-0.91723 2.0022,-2.06182 2.00482,-3.6863 l 10e-4,-0.71076 -2.81865,0.0492 c -2.43709,0.0425 -2.9187,0.076 -3.55768,0.2471 -0.99012,0.26515 -1.42764,0.50261 -1.88647,1.02389 -0.4712,0.53531 -0.64499,1.10808 -0.58038,1.91288 0.0635,0.79106 0.3565,1.36023 0.82268,1.59806 1.21228,0.61846 3.20535,0.72134 4.64408,0.23972 z M 115.74184,84.314081 h -9.15462 v 3.372758 3.372749 h 7.90189 7.90188 c 0,2.601845 -7e-4,5.203685 -7e-4,7.805526 h -7.56392 -8.23916 v 3.420936 3.42094 h 9.10644 9.10645 l -0.0205,7.99825 H 111.83911 97.531877 l -0.0028,-0.67455 V 94.625077 76.219468 h 13.346473 13.34648 l 0.0259,8.094613 m 34.66534,29.053889 c 0,-0.32122 -0.0161,-0.33728 -0.33726,-0.33728 h -0.33728 V 98.865114 84.699536 h 3.99913 4.68715 l -0.021,0.674557 0.0279,0.819163 0.0279,0.819173 0.69889,-0.571425 c 1.22139,-0.998663 2.38086,-1.600743 3.83838,-1.993175 1.02786,-0.276751 3.39074,-0.257549 4.40396,0.03579 0.9338,0.27035 2.04488,0.824097 2.86182,1.426294 0.803,0.591916 2.26244,2.04393 2.81199,2.797669 l 0.42805,0.587109 0.38034,-0.524969 c 0.90581,-1.250447 2.65431,-2.626348 4.30879,-3.390719 1.93525,-0.894094 3.50434,-1.207324 5.65967,-1.129804 3.25963,0.117244 5.46405,0.995488 7.62243,3.03679 2.26555,2.142666 3.23165,4.204586 3.55158,7.580005 0.0613,0.64699 0.1005,4.523738 0.10055,9.949626 l 8e-5,8.88963 h -4.04731 -4.0473 v -0.33728 c 0,-0.32056 -0.0165,-0.33727 -0.3339,-0.33727 h -0.33389 l -0.0324,-8.74508 c -0.03,-8.102538 -0.0453,-8.794638 -0.20878,-9.419626 -0.40203,-1.537623 -0.87115,-2.257968 -1.73061,-2.65737 -1.49044,-0.692642 -3.41595,-0.557134 -4.92504,0.3466 -1.30889,0.783841 -2.23484,2.024045 -2.67493,3.582734 -0.21023,0.744628 -0.2125,0.830657 -0.24171,9.159482 l -0.0295,8.40781 h -3.99562 -3.99563 v -0.33728 c 0,-0.32121 -0.0161,-0.33727 -0.33728,-0.33727 h -0.33727 l -0.002,-7.73326 c -0.003,-9.255195 -0.0569,-10.209669 -0.67374,-11.85845 -0.43048,-1.150588 -1.2874,-1.630368 -2.93775,-1.644801 -1.2097,-0.01058 -2.09316,0.253485 -3.0992,0.926372 -1.27344,0.851724 -2.02396,1.916478 -2.46322,3.494535 -0.2131,0.765603 -0.2148,0.828526 -0.2451,9.130534 l -0.0305,8.35962 h -3.99513 -3.99514 z m 83.54787,-0.33728 V 98.865114 84.699536 h 3.99912 4.58409 v 0.337279 c 0,0.321213 0.0896,2.568556 0.0896,2.568556 l 0.50592,-0.428441 c 1.16619,-0.987612 2.88977,-1.976231 4.26413,-2.445841 0.74669,-0.255136 2.08603,-0.513379 2.66265,-0.513379 0.36185,0 0.37283,0.0099 0.37283,0.337279 0,0.321214 0.0161,0.337279 0.33728,0.337279 h 0.33727 v 2.385019 c 0,1.311758 0.0284,2.997712 0.0627,3.746546 l 0.0623,1.361535 -1.58039,0.04225 c -1.44769,0.0387 -1.6495,0.06646 -2.40373,0.330622 -2.28602,0.800666 -3.62572,2.584974 -4.34552,5.787676 -0.20649,0.918741 -0.21359,1.147221 -0.25026,8.052444 l -0.0377,7.10689 h -3.99299 -4.66463 z"
         id="path8" />
      <path
         style="fill:url(#linearGradient4);stroke-width:0.0977191"
         d="m 139.93126,113.86936 c -0.15899,-0.0224 -0.70105,-0.0879 -1.20456,-0.14554 -1.07183,-0.12277 -3.45583,-0.71294 -4.62549,-1.14507 -1.71778,-0.63464 -3.60424,-1.6509 -4.98446,-2.68521 -0.32994,-0.24724 -0.60096,-0.50374 -0.60228,-0.56999 -10e-4,-0.0662 -0.0349,-0.12182 -0.0747,-0.1235 -0.0397,-0.002 -0.19445,-0.11053 -0.34379,-0.2419 l -0.27152,-0.23884 1.70441,-2.43223 c 0.93742,-1.33772 1.73839,-2.4692 1.77993,-2.51442 0.0416,-0.0452 0.3111,0.0918 0.59906,0.30456 2.35992,1.74337 4.94648,2.74159 7.78909,3.00599 2.01796,0.18771 3.46709,-0.21936 4.04934,-1.13749 0.32016,-0.50483 0.37818,-1.18867 0.13997,-1.64934 -0.30813,-0.59585 -1.52697,-1.17941 -4.67775,-2.23965 -3.49774,-1.17699 -5.66295,-2.316479 -7.15122,-3.763481 -0.97284,-0.94586 -1.35325,-1.444263 -1.75265,-2.296269 -0.82118,-1.751728 -0.85602,-4.311723 -0.0849,-6.23797 1.10426,-2.758357 3.99209,-4.82869 7.78421,-5.580613 1.35191,-0.268054 4.66217,-0.239862 6.00896,0.05119 1.27829,0.276243 2.79106,0.783231 3.9593,1.326903 0.61247,0.285038 1.33216,0.676356 1.92258,1.030189 0.18691,0.105927 1.947,1.281454 1.947,1.281454 -0.0644,0.242168 -3.04344,5.434822 -3.11698,5.434822 -0.045,0 -0.31929,-0.1519 -0.60952,-0.337556 -1.38641,-0.886876 -3.14524,-1.616196 -4.69646,-1.947435 -1.20127,-0.256523 -3.17943,-0.232367 -4.08924,0.04992 -1.30675,0.405458 -1.88296,1.452804 -1.35406,2.461181 0.15393,0.293456 1.41149,0.805186 4.46119,1.815355 1.59002,0.526669 3.25952,1.113496 3.71003,1.30406 1.4216,0.601336 2.8423,1.464655 3.67117,2.230868 1.87821,1.736222 2.4693,3.260222 2.374,6.120822 -0.0807,2.42145 -0.65163,3.91669 -2.09422,5.48439 -1.49287,1.62233 -3.44443,2.6721 -5.87825,3.16198 -0.87953,0.17704 -3.60663,0.31873 -4.28821,0.22281 z m 81.38321,-0.0423 c -3.99449,-0.41857 -7.36375,-2.18045 -10.08456,-5.27348 -1.75806,-1.99859 -2.75889,-4.10031 -3.2821,-6.89243 -0.24122,-1.28722 -0.24003,-4.850443 0.002,-6.190041 0.2103,-1.163643 0.7921,-2.960729 1.25169,-3.866269 1.88147,-3.707028 5.63241,-6.50504 9.88325,-7.372427 1.23661,-0.252321 3.618,-0.33937 5.03661,-0.184094 3.45766,0.378448 6.15786,1.644072 8.7244,4.089229 1.71654,1.635354 2.69755,3.125861 3.34434,5.081216 0.55863,1.688866 0.65274,2.473273 0.70672,5.890103 l 0.0483,3.059573 h -10.33023 -10.3302 l 0.0653,0.31319 c 0.0982,0.47101 0.51906,1.37453 0.87066,1.86909 0.54571,0.76754 1.89114,1.57884 3.29133,1.98468 0.64227,0.18616 0.96677,0.21666 2.24447,0.21094 1.60791,-0.007 2.28016,-0.12116 3.455,-0.5857 0.91307,-0.36103 1.78937,-0.89329 2.56779,-1.55965 0.54225,-0.46419 0.70154,-0.55548 0.81217,-0.46545 0.0757,0.0616 1.24102,1.30416 2.58964,2.76124 l 2.45202,2.64924 -0.56598,0.50939 c -2.17265,1.95539 -4.93735,3.28925 -7.94835,3.83475 -0.97944,0.17745 -3.6824,0.25447 -4.80435,0.1369 z m 6.72878,-18.572772 c -0.14693,-0.792803 -0.46747,-1.630999 -0.8454,-2.210643 -0.40678,-0.623895 -0.99942,-1.035096 -2.10528,-1.460782 -0.59455,-0.228859 -0.77228,-0.250192 -2.09512,-0.25153 -1.33646,-0.0014 -1.50361,0.01886 -2.21639,0.267898 -1.71132,0.597906 -3.10933,1.74543 -3.75052,3.078523 -0.18973,0.394467 -0.34497,0.788549 -0.34497,0.87574 0,0.145345 0.47571,0.158525 5.72125,0.158525 h 5.72125 z m 43.21234,18.571422 c -2.81854,-0.35543 -5.15066,-1.56538 -7.12723,-3.69775 -1.53057,-1.65123 -2.22925,-3.21309 -2.44079,-5.4563 -0.17074,-1.81053 0.0847,-3.45065 0.75767,-4.864151 1.26691,-2.661149 4.333,-4.334767 8.72709,-4.76366 0.57897,-0.05651 2.65583,-0.102745 4.61525,-0.102745 h 3.56259 l -0.0634,-0.681508 c -0.0759,-0.816892 -0.37608,-1.758068 -0.69461,-2.178012 -0.2753,-0.36294 -1.02178,-0.733737 -1.82338,-0.905703 -0.79435,-0.170423 -2.52397,-0.147215 -3.55065,0.04764 -1.73873,0.329989 -4.12524,1.274926 -5.42379,2.147539 -0.3111,0.20906 -0.6182,0.410889 -0.68246,0.448509 -0.073,0.04276 -0.21289,-0.0768 -0.37312,-0.318914 -0.14098,-0.213022 -0.29066,-0.366086 -0.33264,-0.340143 -0.042,0.02594 -0.84585,-1.069711 -1.7864,-2.434784 -0.94054,-1.365073 -1.7508,-2.534951 -1.80059,-2.599719 -0.2099,-0.273087 3.0441,-2.112979 5.06091,-2.861559 2.48947,-0.924016 4.50614,-1.258705 7.58782,-1.259262 1.97557,0 2.40308,0.0276 3.34991,0.219038 2.6394,0.533666 4.517,1.510743 6.23877,3.246573 1.35104,1.362064 2.06596,2.597267 2.50441,4.327009 0.40228,1.587086 0.43429,2.494773 0.43429,12.314662 v 9.33061 h -3.75821 -4.45323 l 0.0205,-1.55431 v -0.87975 l -0.40956,0.35355 c -1.39994,1.20854 -2.69695,1.92374 -4.12378,2.27393 -0.94413,0.23173 -2.93447,0.32552 -4.01539,0.18921 z m 4.59411,-7.47796 c 0.39548,-0.13239 1.01218,-0.43559 1.37046,-0.67377 1.37971,-0.91723 2.00221,-2.06182 2.00483,-3.6863 l 0.001,-0.71076 -2.81866,0.0492 c -2.4371,0.0425 -2.9187,0.076 -3.55769,0.24709 -0.99011,0.26516 -1.42762,0.50262 -1.88646,1.02389 -0.47121,0.53531 -0.64499,1.10808 -0.58039,1.91289 0.0635,0.79105 0.35652,1.36023 0.82269,1.59805 1.21229,0.61847 3.20536,0.72134 4.64408,0.23972 z M 115.02104,84.051968 h -9.15462 v 3.372759 3.372758 h 7.90189 7.90188 c 0,2.60184 -7e-4,5.20368 -7e-4,7.805521 h -7.56357 -8.23916 v 3.420934 3.42094 h 9.10644 9.10645 l -0.0205,7.99826 H 111.11866 96.811428 l -0.0028,-0.67455 V 94.362969 75.957355 h 13.346472 13.34649 l 0.0258,8.094613 m 34.66535,29.053892 c 0,-0.32122 -0.0161,-0.33727 -0.33727,-0.33727 h -0.3373 V 98.603006 84.437432 h 3.99913 4.68716 l -0.021,0.674548 0.0279,0.819173 0.0279,0.819172 0.6989,-0.571434 c 1.22139,-0.998654 2.38086,-1.600733 3.83838,-1.993174 1.02786,-0.276752 3.39074,-0.25755 4.40395,0.03579 0.9338,0.270341 2.04489,0.824098 2.86182,1.426294 0.803,0.591907 2.26244,2.04393 2.812,2.79767 l 0.42805,0.587099 0.38034,-0.524969 c 0.90596,-1.250448 2.65446,-2.626348 4.30894,-3.39071 1.93525,-0.894103 3.50434,-1.207324 5.65967,-1.129803 3.25963,0.117234 5.46404,0.995478 7.62242,3.036779 2.26555,2.142667 3.23165,4.204586 3.55159,7.58001 0.0613,0.64699 0.10051,4.523739 0.10055,9.949633 l 8e-5,8.88962 h -4.04746 -4.0473 v -0.33727 c 0,-0.32057 -0.0165,-0.33728 -0.3339,-0.33728 h -0.3339 l -0.0324,-8.74508 c -0.03,-8.102534 -0.0453,-8.794635 -0.20878,-9.419623 -0.40203,-1.537622 -0.87115,-2.257968 -1.7306,-2.657371 -1.49045,-0.692645 -3.41595,-0.557138 -4.92504,0.346602 -1.3089,0.783841 -2.23485,2.024044 -2.67493,3.582733 -0.21023,0.744629 -0.21251,0.830658 -0.24172,9.159489 l -0.0295,8.4078 h -3.99562 -3.99562 v -0.33727 c 0,-0.32123 -0.0161,-0.33728 -0.33728,-0.33728 h -0.33727 l -0.002,-7.73325 c -0.003,-9.255202 -0.0569,-10.209676 -0.67374,-11.858456 -0.43048,-1.15059 -1.2874,-1.630363 -2.93775,-1.644806 -1.20969,-0.01058 -2.09315,0.253494 -3.0992,0.926377 -1.27344,0.851724 -2.02396,1.916478 -2.46322,3.494534 -0.2131,0.765603 -0.21479,0.828527 -0.24509,9.130531 l -0.0305,8.35962 h -3.99513 -3.99515 z m 83.54786,-0.33727 V 98.603006 84.437432 h 3.99913 4.5841 v 0.33727 c 0,0.321213 0.0896,2.568566 0.0896,2.568566 l 0.50591,-0.428441 c 1.16618,-0.987612 2.88976,-1.97623 4.26413,-2.445851 0.74668,-0.255136 2.08604,-0.513369 2.66264,-0.513369 0.36185,0 0.37283,0.0099 0.37283,0.337279 0,0.321213 0.0161,0.337269 0.33729,0.337269 h 0.33726 v 2.385019 c 0,1.311767 0.0284,2.997712 0.0627,3.746556 l 0.0623,1.361525 -1.58039,0.04225 c -1.44769,0.0387 -1.6495,0.06646 -2.40373,0.330622 -2.28601,0.800666 -3.62571,2.584975 -4.34552,5.787676 -0.20648,0.918741 -0.21358,1.147221 -0.25026,8.052447 l -0.0377,7.10688 h -3.99298 -4.66464 z"
         id="path3" />
    </g>
  </g>
</svg>
